# xmcd
#
# Track frame offsets:
#	150
#	10370
#	22725
#	33002
#	44972
#	58690
#	70105
#	81462
#	92460
#	106810
#	119305
#	131197
#
# Disc length: 1901 seconds
#
# Revision: 0
# Processed by: cddbd v1.5.1PL2 Copyright (c) Steve Scherf et al.
# Submitted via: dBpowerAMP V4.0
#
DISCID=9a076b0c
DTITLE=Pat Boone and Andy Williams - Billboard Hits U.S.A.
DYEAR=1900
DGENRE=Blues
TTITLE0=Love Letters In The Sand
TTITLE1=April Love
TTITLE2=Blue Bobby Socks
TTITLE3=Moody River
TTITLE4=I'll Be Home
TTITLE5=Speedy Gonzales
TTITLE6=More
TTITLE7=Red Roses For A Blue Lady
TTITLE8=Love Story
TTITLE9=Moon River
TTITLE10=Canadian Sunset
TTITLE11=Charade
EXTD=
EXTT0=
EXTT1=
EXTT2=
EXTT3=
EXTT4=
EXTT5=
EXTT6=
EXTT7=
EXTT8=
EXTT9=
EXTT10=
EXTT11=
PLAYORDER=
